<svg xmlns="http://www.w3.org/2000/svg" width="24" height="24"><path d="M12 1q1.656 0 2.828 1.172T16 5q0 1.383-.844 2.457T13 8.867v12.078q1.664-.188 3.145-.965t2.547-1.957 1.688-2.75.621-3.273q0-.414.293-.707t.707-.293.707.293.293.707q0 2.242-.871 4.277t-2.344 3.508-3.508 2.344-4.277.871-4.277-.871-3.508-2.344-2.344-3.508T1.001 12q0-.414.293-.707T2.001 11t.707.293.293.707q0 1.703.621 3.273t1.688 2.75 2.547 1.957 3.145.965V8.867q-1.313-.336-2.156-1.41T8.002 5q0-1.656 1.172-2.828T12.002 1zm0 2q-.828 0-1.414.586T10 5t.586 1.414T12 7t1.414-.586T14 5t-.586-1.414T12 3z"/></svg>