<svg xmlns="http://www.w3.org/2000/svg" width="24" height="24"><path d="M12 1q2.242 0 4.277.871t3.508 2.344 2.344 3.508T23 12t-.871 4.277-2.344 3.508-3.508 2.344T12 23t-4.277-.871-3.508-2.344-2.344-3.508T1 12t.871-4.277 2.344-3.508 3.508-2.344T12 1zm5.617 18.031L4.969 6.383Q4.031 7.563 3.516 9T3 12q0 1.828.715 3.496t1.918 2.871 2.871 1.918T12 21q1.57 0 3.008-.512t2.609-1.457zM12 3q-1.57 0-3.008.512T6.383 4.969l12.648 12.648q.945-1.172 1.457-2.609T21 12q0-1.828-.715-3.496t-1.918-2.871-2.871-1.918T12 3z"/></svg>