<svg xmlns="http://www.w3.org/2000/svg" width="24" height="24"><path d="M20 1q1.242 0 2.121.879T23 4v16q0 1.242-.879 2.121T20 23t-2.121-.879T17 20V4q0-1.242.879-2.121T20 1zM4 13q1.242 0 2.121.879T7 16v4q0 1.242-.879 2.121T4 23t-2.121-.879T1 20v-4q0-1.242.879-2.121T4 13zm0 2q-.414 0-.707.293T3 16v4q0 .414.293.707T4 21t.707-.293T5 20v-4q0-.414-.293-.707T4 15zm8-8q1.242 0 2.121.879T15 10v10q0 1.242-.879 2.121T12 23t-2.121-.879T9 20V10q0-1.242.879-2.121T12 7zm0 2q-.414 0-.707.293T11 10v10q0 .414.293.707T12 21t.707-.293T13 20V10q0-.414-.293-.707T12 9zm8-6q-.414 0-.707.293T19 4v16q0 .414.293.707T20 21t.707-.293T21 20V4q0-.414-.293-.707T20 3z"/></svg>