<svg xmlns="http://www.w3.org/2000/svg" width="24" height="24"><path d="M12 1q1.289 0 2.438.418t2.039 1.152 1.602 1.746 1.184 2.187.738 2.496q.789 3.961 1.676 6.262t2.324 3.738h-9.172q.172.492.172 1 0 1.242-.879 2.121t-2.121.879-2.121-.879-.879-2.121q0-.508.172-1H.001q1.437-1.437 2.324-3.738t1.676-6.262q.266-1.32.738-2.496t1.184-2.187T7.525 2.57t2.039-1.152T12.002 1zm0 18q-.414 0-.707.293T11 20t.293.707T12 21t.707-.293T13 20t-.293-.707T12 19zm0-16q-.906 0-1.707.281T8.922 4 7.863 5.051 7.07 6.242t-.551 1.234-.363 1.082-.195.832q-1 5.039-2.203 7.609h16.484q-1.203-2.57-2.203-7.609-.078-.406-.195-.832t-.363-1.082-.551-1.234-.793-1.191T15.078 4t-1.371-.719T12 3z"/></svg>