<svg xmlns="http://www.w3.org/2000/svg" width="24" height="24"><path d="M8 2h8l2 3h3q1.242 0 2.121.895T24 8.032v10.984q0 1.242-.879 2.113T21 22H3q-1.242 0-2.121-.879T0 19V8.016q0-1.242.879-2.129T3 5h3zm4 6q1.016 0 1.941.398t1.594 1.066 1.066 1.594.398 1.941-.398 1.941-1.066 1.594-1.594 1.066-1.941.398-1.941-.398-1.594-1.066-1.066-1.594-.398-1.941.398-1.941 1.066-1.594 1.594-1.066T12 8zm0 2q-1.242 0-2.121.879T9 13t.879 2.121T12 16t2.121-.879T15 13t-.879-2.121T12 10zm4.93-3l-1.961-3H9.071l-2 3h-4.07q-.414 0-.707.297t-.293.719V19q0 .414.293.707t.707.293h18q.422 0 .711-.285t.289-.699V8.032q0-.422-.297-.727T21.001 7h-4.07z"/></svg>