<svg xmlns="http://www.w3.org/2000/svg" width="24" height="24"><path d="M12 1q2.242 0 4.277.871t3.508 2.344 2.344 3.508T23 12t-.871 4.277-2.344 3.508-3.508 2.344T12 23t-4.277-.871-3.508-2.344-2.344-3.508T1 12t.871-4.277 2.344-3.508 3.508-2.344T12 1zm0 2q-1.828 0-3.496.715T5.633 5.633 3.715 8.504 3 12t.715 3.496 1.918 2.871 2.871 1.918T12 21t3.496-.715 2.871-1.918 1.918-2.871T21 12t-.715-3.496-1.918-2.871-2.871-1.918T12 3zm2.828 5.164q.414 0 .711.293t.297.707-.297.711L13.414 12l2.125 2.117q.297.297.297.703 0 .414-.297.707t-.711.293-.703-.289L12 13.414l-2.117 2.117q-.289.289-.711.289-.414 0-.707-.289t-.293-.703q0-.422.289-.711L10.586 12 8.461 9.875q-.289-.289-.289-.703t.293-.711.707-.297.711.297L12 10.586l2.125-2.125q.297-.297.703-.297z"/></svg>