<svg xmlns="http://www.w3.org/2000/svg" width="24" height="24"><path d="M12 1q2.242 0 4.277.871t3.508 2.344 2.344 3.508T23 12t-.871 4.277-2.344 3.508-3.508 2.344T12 23t-4.277-.871-3.508-2.344-2.344-3.508T1 12t.871-4.277 2.344-3.508 3.508-2.344T12 1zm0 2q-1.828 0-3.496.715T5.633 5.633 3.715 8.504 3 12t.715 3.496 1.918 2.871 2.871 1.918T12 21t3.496-.715 2.871-1.918 1.918-2.871T21 12t-.715-3.496-1.918-2.871-2.871-1.918T12 3zm3.367 5.992q.414 0 .707.293t.293.707-.297.711l-4.242 4.242q-.289.289-.703.289-.422 0-.711-.289l-2.125-2.117Q8 12.539 8 12.117q0-.414.293-.707T9 11.117t.711.297l1.414 1.414 3.531-3.539q.297-.297.711-.297z"/></svg>