<svg xmlns="http://www.w3.org/2000/svg" width="24" height="24"><path d="M10 1h4q.969 0 1.742.559T16.828 3H18q1.242 0 2.121.879T21 6v14q0 1.242-.879 2.121T18 23H6q-1.242 0-2.121-.879T3 20V6q0-1.242.879-2.121T6 3h1.172q.312-.883 1.086-1.441T10 1zm8 4h-1.172q-.312.883-1.086 1.441T14 7h-4q-.969 0-1.742-.559T7.172 5H6q-.414 0-.707.293T5 6v14q0 .414.293.707T6 21h12q.414 0 .707-.293T19 20V6q0-.414-.293-.707T18 5zm-4-2h-4q-.414 0-.707.293T9 4t.293.707T10 5h4q.414 0 .707-.293T15 4t-.293-.707T14 3z"/></svg>