<svg xmlns="http://www.w3.org/2000/svg" width="24" height="24"><path d="M12 1q2.242 0 4.277.871t3.508 2.344 2.344 3.508T23 12t-.871 4.277-2.344 3.508-3.508 2.344T12 23t-4.277-.871-3.508-2.344-2.344-3.508T1 12t.871-4.277 2.344-3.508 3.508-2.344T12 1zm0 2q-1.828 0-3.496.715T5.633 5.633 3.715 8.504 3 12t.715 3.496 1.918 2.871 2.871 1.918T12 21t3.496-.715 2.871-1.918 1.918-2.871T21 12t-.715-3.496-1.918-2.871-2.871-1.918T12 3zm0 2q.414 0 .707.293T13 6v5.586l2.711 2.703Q16 14.578 16 15t-.289.711T15 16t-.711-.289l-3-3Q11 12.422 11 12V6q0-.414.293-.707T12 5z"/></svg>