<svg xmlns="http://www.w3.org/2000/svg" width="24" height="24"><path d="M15 2q1.828 0 3.496.715t2.871 1.918 1.918 2.871T24 11q0 1.992-.82 3.766t-2.266 3.027-3.281 1.816l.492-.484q.422-.43.656-1 .219-.531.219-1.156 0-.156-.008-.219 1.391-.969 2.199-2.48T22 11q0-1.422-.555-2.719t-1.492-2.234-2.234-1.492T15 4q-1.297 0-2.496.465t-2.109 1.262-1.523 1.906T8.079 10H6.001q-1.656 0-2.828 1.172T2.001 14q0 .906.355 1.68t.934 1.27 1.285.773T6.001 18h1.172q.273.687.703 1.125l.883.875H6.001q-1.633 0-3.012-.805T.805 17.011 0 13.999t.805-3.012 2.184-2.184 3.012-.805h.516Q7.134 6.256 8.376 4.9t2.973-2.129 3.652-.773zm-2 8q.414 0 .707.293T14 11v6.586l1.289-1.297Q15.578 16 16 16q.43 0 .715.285T17 17q0 .422-.289.711l-3 3Q13.422 21 13 21t-.711-.289l-3-3Q9 17.406 9 17q0-.414.293-.707T10 16q.422 0 .711.289L12 17.586V11q0-.414.293-.707T13 10z"/></svg>