<svg xmlns="http://www.w3.org/2000/svg" width="24" height="24"><path d="M15 2q1.828 0 3.496.715t2.871 1.918 1.918 2.871T24 11q0 1.703-.621 3.273t-1.688 2.75-2.547 1.957-3.145.965v-2.016q1.68-.242 3.051-1.215t2.16-2.477.789-3.238q0-1.422-.555-2.719t-1.492-2.234-2.234-1.492-2.719-.555q-1.297 0-2.496.465t-2.109 1.262-1.523 1.906-.793 2.367H6q-1.656 0-2.828 1.172T2 13.999q0 .906.355 1.68t.934 1.27 1.285.773T6 17.999h4v2H6q-1.633 0-3.012-.805T.804 17.01t-.805-3.012.805-3.012 2.184-2.184T6 7.997h.516q.617-1.742 1.859-3.098t2.973-2.129T15 1.997zm-2 8q.414 0 .711.297l3 3Q17 13.586 17 14q0 .43-.285.715T16 15q-.422 0-.711-.289L14 13.414V20q0 .414-.293.707T13 21t-.707-.293T12 20v-6.586l-1.289 1.297Q10.422 15 10 15q-.414 0-.707-.293T9 14q0-.398.289-.703l3-3Q12.586 10 13 10z"/></svg>