<svg xmlns="http://www.w3.org/2000/svg" width="24" height="24"><path d="M15 3q1.828 0 3.496.715t2.871 1.918 1.918 2.871T24 12t-.715 3.496-1.918 2.871-2.871 1.918T15 21H6q-1.633 0-3.012-.805T.804 18.011t-.805-3.012.805-3.012 2.184-2.184T6 8.998h.516Q7.133 7.256 8.375 5.9t2.973-2.129T15 2.998zm0 2q-1.297 0-2.496.465t-2.109 1.262-1.523 1.906T8.079 11H6.001q-1.656 0-2.828 1.172T2.001 15t1.172 2.828T6.001 19h9q1.422 0 2.719-.555t2.234-1.492 1.492-2.234.555-2.719-.555-2.719-1.492-2.234-2.234-1.492T15.001 5z"/></svg>