<svg xmlns="http://www.w3.org/2000/svg" width="24" height="24"><path d="M18 2q1.656 0 2.828 1.172T22 6t-1.172 2.828T18 10h-2v4h2q1.656 0 2.828 1.172T22 18t-1.172 2.828T18 22t-2.828-1.172T14 18v-2h-4v2q0 1.656-1.172 2.828T6 22t-2.828-1.172T2 18t1.172-2.828T6 14h2v-4H6q-1.656 0-2.828-1.172T2 6t1.172-2.828T6 2t2.828 1.172T10 6v2h4V6q0-1.656 1.172-2.828T18 2zM8 18v-2H6q-.828 0-1.414.586T4 18t.586 1.414T6 20t1.414-.586T8 18zM6 4q-.828 0-1.414.586T4 6t.586 1.414T6 8h2V6q0-.828-.586-1.414T6 4zm8 10v-4h-4v4h4zm4 2h-2v2q0 .828.586 1.414T18 20t1.414-.586T20 18t-.586-1.414T18 16zm0-12q-.828 0-1.414.586T16 6v2h2q.828 0 1.414-.586T20 6t-.586-1.414T18 4z"/></svg>