<svg xmlns="http://www.w3.org/2000/svg" width="24" height="24"><path d="M17 1q.414 0 .707.293T18 2v3q0 .414.293.707T19 6h3q.414 0 .707.293T23 7t-.293.707T22 8h-3q-1.242 0-2.121-.879T16 5V2q0-.414.293-.707T17 1zM2 16h3q1.242 0 2.121.879T8 19v3q0 .414-.293.707T7 23t-.707-.293T6 22v-3q0-.414-.293-.707T5 18H2q-.414 0-.707-.293T1 17t.293-.707T2 16zM7 1q.414 0 .707.293T8 2v3q0 1.242-.879 2.121T5 8H2q-.414 0-.707-.293T1 7t.293-.707T2 6h3q.414 0 .707-.293T6 5V2q0-.414.293-.707T7 1zm12 15h3q.414 0 .707.293T23 17t-.293.707T22 18h-3q-.414 0-.707.293T18 19v3q0 .414-.293.707T17 23t-.707-.293T16 22v-3q0-1.242.879-2.121T19 16z"/></svg>