<svg xmlns="http://www.w3.org/2000/svg" width="24" height="24"><path d="M4 1h4q1.242 0 2.121.879T11 4v16q0 1.242-.879 2.121T8 23H4q-1.242 0-2.121-.879T1 20V4q0-1.242.879-2.121T4 1zm4 2H4q-.414 0-.707.293T3 4v16q0 .414.293.707T4 21h4q.414 0 .707-.293T9 20V4q0-.414-.293-.707T8 3zm8 10h4q1.242 0 2.121.879T23 16v4q0 1.242-.879 2.121T20 23h-4q-1.242 0-2.121-.879T13 20v-4q0-1.242.879-2.121T16 13zm4 2h-4q-.414 0-.707.293T15 16v4q0 .414.293.707T16 21h4q.414 0 .707-.293T21 20v-4q0-.414-.293-.707T20 15zM16 1h4q1.242 0 2.121.879T23 4v4q0 1.242-.879 2.121T20 11h-4q-1.242 0-2.121-.879T13 8V4q0-1.242.879-2.121T16 1zm4 2h-4q-.414 0-.707.293T15 4v4q0 .414.293.707T16 9h4q.414 0 .707-.293T21 8V4q0-.414-.293-.707T20 3z"/></svg>