<svg xmlns="http://www.w3.org/2000/svg" width="24" height="24"><path d="M8 3h13q1.242 0 2.121.879T24 6v12q0 1.242-.879 2.121T21 21H8l-8-9zm13 2H8.898l-6.219 7 6.219 7H21q.414 0 .707-.293T22 18V6q0-.414-.293-.707T21 5zm-2 4q0 .422-.289.711L16.414 12l2.297 2.289Q19 14.578 19 15q0 .43-.285.715T18 16q-.422 0-.711-.289L15 13.414l-2.289 2.297Q12.422 16 12 16q-.414 0-.707-.293T11 15q0-.406.289-.711L13.586 12l-2.297-2.289Q11 9.406 11 9q0-.414.293-.707T12 8q.422 0 .711.289L15 10.586l2.289-2.297Q17.578 8 18 8q.43 0 .715.285T19 9z"/></svg>