<svg xmlns="http://www.w3.org/2000/svg" width="24" height="24"><path d="M12 1q2.242 0 4.277.871t3.508 2.344 2.344 3.508T23 12t-.871 4.277-2.344 3.508-3.508 2.344T12 23t-4.277-.871-3.508-2.344-2.344-3.508T1 12t.871-4.277 2.344-3.508 3.508-2.344T12 1zm0 2q-1.828 0-3.496.715T5.633 5.633 3.715 8.504 3 12t.715 3.496 1.918 2.871 2.871 1.918T12 21t3.496-.715 2.871-1.918 1.918-2.871T21 12t-.715-3.496-1.918-2.871-2.871-1.918T12 3zm0 5q1.656 0 2.828 1.172T16 12t-1.172 2.828T12 16t-2.828-1.172T8 12t1.172-2.828T12 8zm0 2q-.828 0-1.414.586T10 12t.586 1.414T12 14t1.414-.586T14 12t-.586-1.414T12 10z"/></svg>