<svg xmlns="http://www.w3.org/2000/svg" width="24" height="24"><path d="M15 4h4q1.242 0 2.121.879T22 7v14q0 1.242-.879 2.121T19 24H5q-1.242 0-2.121-.879T2 21V7q0-1.242.879-2.121T5 4h4v2H5q-.414 0-.707.293T4 7v14q0 .414.293.707T5 22h14q.414 0 .707-.293T20 21V7q0-.414-.293-.707T19 6h-4V4zm-3-4q.414 0 .707.293T13 1v12.586l2.289-2.297Q15.578 11 16 11q.43 0 .715.285T17 12q0 .422-.289.711l-4 4Q12.422 17 12 17t-.711-.289l-4-4Q7 12.406 7 12q0-.414.293-.707T8 11q.422 0 .711.289L11 13.586V1q0-.414.293-.707T12 0z"/></svg>