<svg xmlns="http://www.w3.org/2000/svg" width="24" height="24"><path d="M20 9q1.242 0 2.121.879T23 12t-.879 2.121T20 15t-2.121-.879T17 12t.879-2.121T20 9zM4 9q1.242 0 2.121.879T7 12t-.879 2.121T4 15t-2.121-.879T1 12t.879-2.121T4 9zm0 2q-.414 0-.707.293T3 12t.293.707T4 13t.707-.293T5 12t-.293-.707T4 11zm8-2q1.242 0 2.121.879T15 12t-.879 2.121T12 15t-2.121-.879T9 12t.879-2.121T12 9zm0 2q-.414 0-.707.293T11 12t.293.707T12 13t.707-.293T13 12t-.293-.707T12 11zm8 0q-.414 0-.707.293T19 12t.293.707T20 13t.707-.293T21 12t-.293-.707T20 11z"/></svg>