<svg xmlns="http://www.w3.org/2000/svg" width="24" height="24"><path d="M13.102 1.055q2.023.203 3.84 1.117t3.191 2.422q1.352 1.484 2.102 3.367.766 1.945.766 4.039 0 2.242-.867 4.281-.805 1.93-2.352 3.5-1.57 1.547-3.5 2.352-2.039.867-4.281.867-2.094 0-4.039-.766-1.883-.75-3.367-2.102-1.508-1.375-2.422-3.191t-1.117-3.84q-.039-.445.254-.773T2.056 12q.383 0 .668.258t.324.641q.164 1.664.91 3.148t1.988 2.609q1.211 1.117 2.75 1.719Q10.29 21 12.001 21q1.836 0 3.5-.703 1.578-.664 2.867-1.93 1.266-1.289 1.93-2.867.703-1.664.703-3.5 0-1.711-.625-3.305-.602-1.539-1.719-2.75-1.125-1.242-2.609-1.988t-3.148-.91q-.383-.039-.641-.324t-.258-.668q0-.297.113-.508t.301-.312.355-.141.332-.039zM2 1h6q.414 0 .707.293T9 2t-.293.707T8 3H4.414l8.297 8.297Q13 11.578 13 12q0 .43-.285.715T12 13q-.422 0-.711-.289L3 4.414V8q0 .414-.293.707T2 9t-.707-.293T1 8V2q0-.414.293-.707T2 1z"/></svg>