<svg xmlns="http://www.w3.org/2000/svg" width="24" height="24"><path d="M17 1h3q1.242 0 2.121.879T23 4v3q0 .414-.293.707T22 8t-.707-.293T21 7V4q0-.414-.293-.707T20 3h-3q-.414 0-.707-.293T16 2t.293-.707T17 1zM2 16q.414 0 .707.293T3 17v3q0 .414.293.707T4 21h3q.414 0 .707.293T8 22t-.293.707T7 23H4q-1.242 0-2.121-.879T1 20v-3q0-.414.293-.707T2 16zM4 1h3q.414 0 .707.293T8 2t-.293.707T7 3H4q-.414 0-.707.293T3 4v3q0 .414-.293.707T2 8t-.707-.293T1 7V4q0-1.242.879-2.121T4 1zm18 15q.414 0 .707.293T23 17v3q0 1.242-.879 2.121T20 23h-3q-.414 0-.707-.293T16 22t.293-.707T17 21h3q.414 0 .707-.293T21 20v-3q0-.414.293-.707T22 16z"/></svg>