<svg xmlns="http://www.w3.org/2000/svg" width="24" height="24"><path d="M12 3q1.633 0 3.176.496t2.707 1.289 2.191 1.754 1.727 1.922 1.211 1.754.754 1.285L24 12l-.148.316q-.093.199-.441.813t-.742 1.211-1.039 1.406-1.332 1.508-1.629 1.41-1.93 1.207-2.223.813T12 21q-1.633 0-3.176-.496t-2.707-1.285-2.191-1.742-1.727-1.91-1.211-1.746-.754-1.289L0 12.04l.148-.316q.093-.199.441-.816t.742-1.215T2.37 8.279t1.332-1.516 1.629-1.414 1.93-1.215 2.223-.816T12 3.002zm0 2q-1.094 0-2.148.289t-1.902.746T6.294 7.14 4.896 8.417 3.751 9.769t-.883 1.238-.617 1.031q.289.508.617 1.02t.883 1.227 1.145 1.336 1.398 1.262 1.656 1.094 1.902.738T12 19t2.148-.289 1.902-.742 1.656-1.098 1.398-1.27 1.145-1.344.883-1.234.617-1.023q-.289-.508-.617-1.023t-.883-1.234-1.145-1.344-1.398-1.27-1.656-1.098-1.902-.742T12 5zm0 3q1.656 0 2.828 1.172T16 12t-1.172 2.828T12 16t-2.828-1.172T8 12t1.172-2.828T12 8zm0 2q-.828 0-1.414.586T10 12t.586 1.414T12 14t1.414-.586T14 12t-.586-1.414T12 10z"/></svg>