<svg xmlns="http://www.w3.org/2000/svg" width="24" height="24"><path d="M7 1q.828 0 1.781.207t1.836.5l1.766.586 1.836.5L16 3q.844 0 1.664-.102t1.398-.25 1.035-.297.684-.25L21 1.999v14q-.078.039-.234.105t-.66.242-1.051.305-1.379.238-1.676.109q-.828 0-1.781-.207t-1.836-.5l-1.766-.586-1.836-.5L7 14.998q-1.492 0-3 .336v6.664q0 .414-.293.707T3 22.998t-.707-.293T2 21.998v-20q.078-.039.234-.105t.66-.242 1.051-.305 1.379-.238T7 .999zm0 2q-1.531 0-3 .398v9.898q1.5-.297 3-.297 1.109 0 2.219.254t2.523.723q.18.063.676.23t.727.242.676.203.746.188.691.109.742.051q1.531 0 3-.398V4.703Q17.5 5 16 5q-1.109 0-2.219-.254t-2.523-.723q-.18-.063-.676-.23t-.727-.242-.676-.203-.746-.188-.691-.109T7 3z"/></svg>