<svg xmlns="http://www.w3.org/2000/svg" width="24" height="24"><path d="M12 1q.281 0 .422.008 1.453.055 2.824.48t2.535 1.145 2.137 1.73 1.648 2.199 1.055 2.582.379 2.855-.379 2.855-1.055 2.582-1.648 2.199-2.137 1.73-2.535 1.145-2.824.48q-.141.008-.422.008t-.422-.008q-1.453-.055-2.824-.48t-2.535-1.145-2.137-1.73-1.648-2.199-1.055-2.582T1 11.999t.379-2.855 1.055-2.582 1.648-2.199 2.137-1.73 2.535-1.145 2.824-.48Q11.719 1 12 1zM7.039 13H3.055q.312 2.789 2.148 4.898t4.516 2.813q-1.016-1.539-1.77-3.488T7.039 13zm7.922 0H9.039q.078 1 .324 2t.551 1.77.703 1.52.719 1.234.664.93q.344-.445.664-.934t.719-1.238.703-1.52.551-1.766.324-1.996zM9.719 3.289q-2.68.703-4.516 2.812t-2.148 4.898h3.984q.273-4.078 2.68-7.711zM20.945 13h-3.977q-.289 4.086-2.688 7.711 2.68-.703 4.516-2.813T20.944 13zM12 3.547q-.344.445-.66.934t-.719 1.238-.707 1.52-.551 1.766-.324 1.996h5.922q-.078-1-.324-2t-.551-1.77-.703-1.52-.719-1.234-.664-.93zm2.281-.258Q16.679 6.914 16.969 11h3.977q-.312-2.789-2.148-4.898t-4.516-2.813z"/></svg>