<svg xmlns="http://www.w3.org/2000/svg" width="24" height="24"><path d="M12 0q1.633 0 3.012.805t2.184 2.184.805 3.012v3q0 1.25-.484 2.367t-1.352 1.945q2.281.359 4.055 1.059t2.777 1.652 1.004 2.008v1.969q0 1.242-.879 2.121t-2.121.879h-18q-1.242 0-2.121-.879t-.879-2.121v-1.977q0-1.055 1.004-2.008t2.773-1.652 4.051-1.051q-.859-.836-1.344-1.949t-.484-2.363v-3q0-1.633.805-3.012T8.99.805 12.002 0zm0 15q-2.172 0-4.191.348t-3.52.973q-.602.25-1.074.531t-.719.508-.371.395-.125.27v1.977q0 .414.293.707t.707.293h18q.414 0 .707-.293t.293-.707v-1.969q0-.102-.125-.27t-.371-.395-.719-.508-1.074-.539q-1.5-.625-3.52-.973T12 15zm0-13q-1.656 0-2.828 1.172T8 6v3q0 1.656 1.172 2.828T12 13t2.828-1.172T16 9V6q0-1.656-1.172-2.828T12 2z"/></svg>