<svg xmlns="http://www.w3.org/2000/svg" width="24" height="24"><path d="M12 1q2.156 0 4.18.82t3.602 2.398T22.18 7.82 23 12t-.82 4.18-2.398 3.602-3.602 2.398T12 23t-4.18-.82-3.602-2.398T1.82 16.18 1 12t.82-4.18 2.398-3.602T7.82 1.82 12 1zM7.828 9.242L4.969 6.383Q4 7.594 3.5 9.039T3 12t.5 2.961 1.469 2.656l2.859-2.859Q7 13.508 7 12t.828-2.758zm9.789 9.789l-2.859-2.859Q13.508 17 12 17t-2.758-.828l-2.859 2.859Q7.594 20 9.039 20.5T12 21t2.961-.5 2.656-1.469zM12 9q-1.242 0-2.121.879T9 12t.879 2.121T12 15t2.121-.879T15 12t-.879-2.121T12 9zm0-6q-1.516 0-2.961.5T6.383 4.969l2.859 2.859Q10.492 7 12 7t2.758.828l2.859-2.859Q16.406 4 14.961 3.5T12 3zm7.031 3.383l-2.859 2.859Q17 10.492 17 12t-.828 2.758l2.859 2.859Q20 16.406 20.5 14.961T21 12t-.5-2.961-1.469-2.656z"/></svg>