<svg xmlns="http://www.w3.org/2000/svg" width="24" height="24"><path d="M12 1q.414 0 .707.293T13 2v11.586l3.289-3.297Q16.578 10 17 10q.43 0 .715.285T18 11q0 .422-.289.711l-5 5Q12.422 17 12 17t-.711-.289l-5-5Q6 11.406 6 11q0-.414.293-.707T7 10q.422 0 .711.289L11 13.586V2q0-.414.293-.707T12 1zm10 14q.414 0 .707.293T23 16v4q0 1.25-.867 2.117-.883.883-2.109.883H4.001q-1.227 0-2.125-.875-.875-.898-.875-2.125v-4q0-.414.293-.707T2.001 15t.707.293.293.707v4q0 .414.293.707t.707.293h16.023q.406 0 .691-.293T21 20v-4q0-.414.293-.707T22 15z"/></svg>