<svg xmlns="http://www.w3.org/2000/svg" width="24" height="24"><path d="M17 1q1.18 0 2.277.445t1.965 1.312 1.313 1.965T23 6.999q0 1.172-.449 2.277t-1.309 1.965l-3 3q-.086.086-.258.242-.836.742-1.867 1.129T14 15.999q-1.367 0-2.586-.586-.914-.43-1.656-1.172t-1.172-1.656q.586-.586 1.414-.586.289 0 .586.086.508.82 1.328 1.328.961.586 2.086.586.781 0 1.516-.297t1.313-.875l3-3q.578-.578.875-1.313t.297-1.516-.297-1.516-.875-1.313-1.313-.875T17 2.997t-1.516.297-1.313.875l-2.102 2.102q-1-.273-2.07-.273-.172 0-.484.016.156-.172.242-.258l3-3q.859-.859 1.965-1.309t2.277-.449zm-7 7q1.367 0 2.586.586.914.43 1.656 1.172t1.172 1.656Q14.828 12 14 12q-.289 0-.586-.086-.508-.82-1.328-1.328Q11.125 10 10 10q-.781 0-1.516.297t-1.313.875l-3 3q-.578.578-.875 1.313t-.297 1.516.297 1.516.875 1.313 1.313.875T7 21.002t1.516-.297 1.313-.875l2.102-2.102q1 .273 2.07.273.172 0 .484-.016-.156.172-.242.258l-3 3q-.867.867-1.965 1.313t-2.277.445q-1.172 0-2.277-.449t-1.965-1.309q-.867-.867-1.313-1.965t-.445-2.277.445-2.277 1.313-1.965l3-3q.086-.086.258-.242.836-.742 1.867-1.129t2.117-.387z"/></svg>