<svg xmlns="http://www.w3.org/2000/svg" width="24" height="24"><path d="M16.25 15.242q.406 0 .703.297l2.828 2.828q.297.297.297.711 0 .406-.297.703t-.703.297q-.414 0-.711-.297l-2.828-2.828q-.289-.289-.289-.711 0-.414.293-.707t.707-.293zm-8.492 0q.414 0 .707.293t.293.707-.297.711l-2.828 2.828q-.297.297-.703.297-.414 0-.707-.293t-.293-.707q0-.422.289-.711l2.828-2.828q.297-.297.711-.297zM2 11h4q.414 0 .707.293T7 12t-.293.707T6 13H2q-.414 0-.707-.293T1 12t.293-.707T2 11zm10 6q.414 0 .707.293T13 18v4q0 .414-.293.707T12 23t-.707-.293T11 22v-4q0-.414.293-.707T12 17zM4.93 3.922q.406 0 .703.297l2.828 2.828q.297.297.297.703 0 .414-.293.707t-.707.293q-.422 0-.711-.289L4.219 5.633q-.289-.289-.289-.711 0-.414.293-.707t.707-.293zM18 11h4q.414 0 .707.293T23 12t-.293.707T22 13h-4q-.414 0-.707-.293T17 12t.293-.707T18 11zM12 1q.414 0 .707.293T13 2v4q0 .414-.293.707T12 7t-.707-.293T11 6V2q0-.414.293-.707T12 1zm7.078 2.922q.406 0 .703.297t.297.703q0 .414-.297.711l-2.828 2.828q-.289.289-.703.289-.43 0-.715-.285t-.285-.715q0-.414.289-.703l2.828-2.828q.297-.297.711-.297z"/></svg>