<svg xmlns="http://www.w3.org/2000/svg" width="24" height="24"><path d="M12 1q2.242 0 4.277.871t3.508 2.344 2.344 3.508T23 12t-.871 4.277-2.344 3.508-3.508 2.344T12 23t-4.277-.871-3.508-2.344-2.344-3.508T1 12t.871-4.277 2.344-3.508 3.508-2.344T12 1zm1 2.055V6q0 .414-.293.707T12 7t-.707-.293T11 6V3.055q-1.547.172-2.934.852T5.632 5.634 3.905 8.068t-.852 2.934h2.945q.414 0 .707.293t.293.707-.293.707-.707.293H3.053q.172 1.547.852 2.934t1.727 2.434 2.434 1.727 2.934.852v-2.945q0-.414.293-.707t.707-.293.707.293.293.707v2.945q1.547-.172 2.934-.852t2.434-1.727 1.727-2.434.852-2.934h-2.945q-.414 0-.707-.293t-.293-.707.293-.707.707-.293h2.945q-.172-1.547-.852-2.934t-1.727-2.434-2.434-1.727T13 3.055z"/></svg>