<svg xmlns="http://www.w3.org/2000/svg" width="24" height="24"><path d="M18 1h2q1.242 0 2.121.879T23 4v2q0 .414-.293.707T22 7t-.707-.293T21 6V4q0-.414-.293-.707T20 3h-2q-.414 0-.707-.293T17 2t.293-.707T18 1zM2 17q.414 0 .707.293T3 18v2q0 .414.293.707T4 21h2q.414 0 .707.293T7 22t-.293.707T6 23H4q-1.242 0-2.121-.879T1 20v-2q0-.414.293-.707T2 17zm0-8q.414 0 .707.293T3 10v4q0 .414-.293.707T2 15t-.707-.293T1 14v-4q0-.414.293-.707T2 9zm8 12h4q.414 0 .707.293T15 22t-.293.707T14 23h-4q-.414 0-.707-.293T9 22t.293-.707T10 21zM4 1h2q.414 0 .707.293T7 2t-.293.707T6 3H4q-.414 0-.707.293T3 4v2q0 .414-.293.707T2 7t-.707-.293T1 6V4q0-1.242.879-2.121T4 1zm18 16q.414 0 .707.293T23 18v2q0 1.242-.879 2.121T20 23h-2q-.414 0-.707-.293T17 22t.293-.707T18 21h2q.414 0 .707-.293T21 20v-2q0-.414.293-.707T22 17zm0-8q.414 0 .707.293T23 10v4q0 .414-.293.707T22 15t-.707-.293T21 14v-4q0-.414.293-.707T22 9zM10 1h4q.414 0 .707.293T15 2t-.293.707T14 3h-4q-.414 0-.707-.293T9 2t.293-.707T10 1z"/></svg>