<svg xmlns="http://www.w3.org/2000/svg" width="24" height="24"><path d="M19 9q.414 0 .707.293T20 10v2q0 1.5-.543 2.887t-1.477 2.43-2.227 1.742-2.754.879v2.063h3q.414 0 .707.293t.293.707-.293.707-.707.293h-8q-.414 0-.707-.293t-.293-.707.293-.707.707-.293h3v-2.063q-1.461-.18-2.754-.879t-2.227-1.742-1.477-2.43T3.998 12v-2q0-.414.293-.707T4.998 9t.707.293.293.707v2q0 1.633.805 3.012t2.184 2.184 3.012.805 3.012-.805 2.184-2.184T18 12v-2q0-.414.293-.707T19 9zm-7-9q1.656 0 2.828 1.172T16 4v8q0 1.656-1.172 2.828T12 16t-2.828-1.172T8 12V4q0-1.656 1.172-2.828T12 0zm0 2q-.828 0-1.414.586T10 4v8q0 .828.586 1.414T12 14t1.414-.586T14 12V4q0-.828-.586-1.414T12 2z"/></svg>