<svg xmlns="http://www.w3.org/2000/svg" width="24" height="24"><path d="M12 2q.336 0 .664.023Q12 3.453 12 5q0 1.422.555 2.719t1.492 2.234 2.234 1.492T19 12q1.547 0 2.977-.664.023.328.023.664 0 1.359-.359 2.656t-1.004 2.395-1.566 2.02-2.02 1.566-2.395 1.004T12 22t-2.656-.359-2.395-1.004-2.02-1.566-1.566-2.02-1.004-2.395T2 12t.359-2.656 1.004-2.395 1.566-2.02 2.02-1.566 2.395-1.004T12 2zm-1.969 2.242q-1.289.328-2.402 1.062T5.715 7.046 4.457 9.339 4 11.999q0 1.625.633 3.105t1.707 2.555 2.555 1.707 3.105.633q1.375 0 2.66-.457t2.293-1.258 1.742-1.914 1.062-2.402q-.336.031-.758.031-1.828 0-3.492-.715t-2.871-1.922-1.922-2.871-.715-3.492q0-.422.031-.758z"/></svg>