<svg xmlns="http://www.w3.org/2000/svg" width="24" height="24"><path d="M12 0q.422 0 .711.289l3.531 3.539q.297.297.297.711t-.293.707-.707.293-.711-.297L13 3.414V11h7.586l-1.828-1.828q-.297-.297-.297-.711t.293-.707.707-.293.711.297l3.539 3.531Q24 11.578 24 12t-.289.703l-3.539 3.539q-.297.297-.711.297t-.707-.293-.293-.707.297-.711L20.586 13H13v7.586l1.828-1.828q.297-.297.711-.297t.707.293.293.707-.297.711l-3.531 3.539Q12.422 24 12 24q-.414 0-.703-.289l-3.539-3.539q-.297-.297-.297-.711t.293-.707.707-.293.711.297L11 20.586V13H3.414l1.828 1.828q.297.297.297.711t-.293.707-.707.293-.711-.297L.289 12.711Q0 12.422 0 12t.289-.711l3.539-3.531q.297-.297.711-.297t.707.293.293.707-.297.711L3.414 11H11V3.414L9.172 5.242q-.297.297-.711.297t-.707-.293-.293-.707.297-.711L11.289.289Q11.578 0 12 0z"/></svg>