<svg xmlns="http://www.w3.org/2000/svg" width="24" height="24"><path d="M6 8l5-5v18l-5-5H4q-1.242 0-2.121-.879T1 13v-1.961q0-1.242.879-2.141T4 8h2zm3 8.172V7.789L6.828 10H4q-.406 0-.703.309t-.297.73V13q0 .414.293.707T4 14h2.828zM21 8q.43 0 .715.285T22 9q0 .422-.289.711L19.414 12l2.297 2.289Q22 14.578 22 15q0 .43-.285.715T21 16q-.422 0-.711-.289L18 13.414l-2.289 2.297Q15.422 16 15 16q-.43 0-.715-.285T14 15q0-.422.289-.711L16.586 12l-2.297-2.289Q14 9.422 14 9q0-.43.285-.715T15 8q.422 0 .711.289L18 10.586l2.289-2.297Q20.578 8 21 8z"/></svg>