<svg xmlns="http://www.w3.org/2000/svg" width="24" height="24"><path d="M4 1h7q.414 0 .707.293T12 2t-.293.707T11 3H4q-.414 0-.707.293T3 4v16q0 .414.293.707T4 21h16q.414 0 .707-.293T21 20v-7q0-.414.293-.707T22 12t.707.293T23 13v7q0 1.242-.879 2.121T20 23H4q-1.242 0-2.121-.879T1 20V4q0-1.242.879-2.121T4 1zm12 0h6q.414 0 .707.293T23 2v6q0 .414-.293.707T22 9t-.707-.293T21 8V4.414l-8.297 8.297Q12.414 13 12 13q-.43 0-.715-.285T11 12q0-.414.289-.703L19.586 3H16q-.414 0-.707-.293T15 2t.293-.707T16 1z"/></svg>