<svg xmlns="http://www.w3.org/2000/svg" width="24" height="24"><path d="M12 1.047q.422 0 .711.289l5 5q.289.289.289.711 0 .43-.285.715T17 8.047q-.422 0-.711-.289L13 4.461v11.586q0 .414-.293.707t-.707.293-.707-.293-.293-.707V4.461L7.711 7.758q-.305.289-.711.289-.414 0-.707-.293T6 7.047q0-.406.289-.711l5-5q.289-.289.711-.289zm10 14q.414 0 .707.293t.293.707v4q0 1.25-.867 2.117-.883.883-2.109.883H4.001q-1.227 0-2.125-.875-.875-.898-.875-2.125v-4q0-.414.293-.707t.707-.293.707.293.293.707v4q0 .414.293.707t.707.293h16.023q.406 0 .691-.293t.285-.707v-4q0-.414.293-.707t.707-.293z"/></svg>