<svg xmlns="http://www.w3.org/2000/svg" width="24" height="24"><path d="M15.797 0q.977 0 1.875.367.938.375 1.656 1.094.727.734 1.094 1.648.359.883.359 1.875t-.359 1.875q-.367.914-1.094 1.648l-9.203 9.203q-.422.422-1 .664-.563.219-1.125.219t-1.125-.219q-.578-.242-1-.664-.438-.438-.656-.992Q5 16.187 5 15.593q0-.602.219-1.133.219-.547.656-.992l8.492-8.484q.297-.297.711-.297.406 0 .703.297t.297.703q0 .414-.297.711l-8.492 8.484Q7 15.171 7 15.593q0 .414.289.703.312.297.711.297t.711-.297l9.203-9.203q.867-.867.867-2.109t-.867-2.109Q17.023 2 15.797 2q-1.234 0-2.109.875l-9.227 9.18q-.719.719-1.094 1.656Q3 14.609 3 15.594q0 .969.367 1.883.375.93 1.094 1.648.742.734 1.656 1.102T8 20.594t1.883-.367 1.656-1.102l9.187-9.188q.297-.297.711-.297.406 0 .703.297t.297.703q0 .414-.297.711l-9.188 9.188q-1.008 1.008-2.32 1.539-1.25.516-2.633.516-1.375 0-2.633-.516-1.313-.531-2.32-1.539-1-1-1.531-2.313-.516-1.266-.516-2.633 0-1.375.516-2.633.523-1.297 1.531-2.32h.008l9.219-9.18q.719-.719 1.648-1.094.914-.367 1.875-.367z"/></svg>