<svg xmlns="http://www.w3.org/2000/svg" width="24" height="24"><path d="M5 0h14q1.242 0 2.121.879T22 3v18q0 1.242-.879 2.121T19 24H5q-1.242 0-2.121-.879T2 21V3q0-1.242.879-2.121T5 0zm3 17h8q.414 0 .707.293T17 18t-.293.707T16 19H8q-.414 0-.707-.293T7 18t.293-.707T8 17zm0-4h8q.414 0 .707.293T17 14t-.293.707T16 15H8q-.414 0-.707-.293T7 14t.293-.707T8 13zM19 2H5q-.414 0-.707.293T4 3v18q0 .414.293.707T5 22h14q.414 0 .707-.293T20 21V3q0-.414-.293-.707T19 2zM8 9h8q.414 0 .707.293T17 10t-.293.707T16 11H8q-.414 0-.707-.293T7 10t.293-.707T8 9zm0-4h4q.414 0 .707.293T13 6t-.293.707T12 7H8q-.414 0-.707-.293T7 6t.293-.707T8 5z"/></svg>