<svg xmlns="http://www.w3.org/2000/svg" width="24" height="24"><path d="M12 1q2.242 0 4.277.871t3.508 2.344 2.344 3.508T23 12t-.871 4.277-2.344 3.508-3.508 2.344T12 23t-4.277-.871-3.508-2.344-2.344-3.508T1 12t.871-4.277 2.344-3.508 3.508-2.344T12 1zm-1 12V3.055q-1.664.188-3.145.965T5.308 5.977 3.62 8.727 2.999 12q0 1.828.715 3.496t1.918 2.871 2.871 1.918 3.496.715q1.703 0 3.273-.621t2.75-1.688 1.957-2.547.965-3.145h-9.945zm2-9.945V11h7.945q-.172-1.547-.852-2.934t-1.727-2.434-2.434-1.727-2.934-.852z"/></svg>