<svg xmlns="http://www.w3.org/2000/svg" width="24" height="24"><path d="M19.07 5.93q1.383 1.383 2.141 3.18.789 1.859.789 3.891t-.789 3.891q-.758 1.797-2.141 3.18t-3.18 2.141q-1.859.789-3.891.789t-3.891-.789q-1.797-.758-3.18-2.141t-2.141-3.18q-.789-1.859-.789-3.891t.789-3.891q.758-1.797 2.141-3.18.289-.289.703-.289t.711.289.297.703-.297.711Q5.24 8.446 4.623 9.883q-.625 1.5-.625 3.117t.625 3.117q.617 1.437 1.719 2.539t2.539 1.719q1.5.625 3.117.625t3.117-.625q1.437-.617 2.539-1.719t1.719-2.539q.625-1.5.625-3.117t-.625-3.117q-.617-1.437-1.719-2.539-.297-.297-.297-.711t.297-.703.711-.289.703.289zM12 1q.414 0 .707.293T13 2v10q0 .414-.293.707T12 13t-.707-.293T11 12V2q0-.414.293-.707T12 1z"/></svg>