<svg xmlns="http://www.w3.org/2000/svg" width="24" height="24"><path d="M11 2q1.945 0 3.766.734 1.867.758 3.305 2.195l2.93 2.867V3.999q0-.414.293-.707t.707-.293.707.293.293.707v6q0 .414-.293.707t-.707.293h-6q-.414 0-.707-.293t-.293-.707.293-.707.707-.293h3.375q-2.172-2.109-2.719-2.656-1.164-1.164-2.648-1.758-1.43-.586-3.008-.586t-3.008.586q-1.492.594-2.648 1.758-1.156 1.156-1.758 2.648-.586 1.43-.586 3.008t.586 3.008q.602 1.492 1.758 2.648 1.156 1.164 2.648 1.758 1.43.586 3.008.586t3.008-.586q1.484-.594 2.648-1.758 1.297-1.297 1.891-2.992.133-.391.508-.566t.766-.043q.391.141.57.516t.039.766q-.359 1.023-.973 2t-1.387 1.734q-1.437 1.437-3.305 2.195-1.82.734-3.766.734t-3.766-.734q-1.867-.758-3.305-2.195t-2.195-3.305Q1 13.945 1 11.999t.734-3.766q.758-1.867 2.195-3.305t3.305-2.195q1.82-.734 3.766-.734z"/></svg>