<svg xmlns="http://www.w3.org/2000/svg" width="24" height="24"><path d="M1 13h6q.414 0 .707.293T8 14t-.293.707T7 15H3.625l2.719 2.656Q7.5 18.82 8.992 19.414 10.422 20 12 20t3.008-.586q.781-.32 1.465-.785t1.164-.953.875-1.047.633-1.027.402-.938q.141-.391.516-.566t.758-.043q.391.141.566.512t.043.754q-.328 1-.953 1.984t-1.406 1.766q-1.437 1.437-3.305 2.195Q13.954 22 12 22q-1.945 0-3.766-.734-1.867-.758-3.305-2.195l-2.93-2.867v3.797q0 .414-.293.707t-.707.293-.707-.293-.293-.707v-6q0-.414.293-.707t.707-.293zM12 2q1.945 0 3.766.734 1.867.758 3.305 2.195l.016.016 2.914 2.852V4q0-.414.293-.707T23.001 3t.707.293.293.707v6q0 .414-.293.707t-.707.293h-6q-.414 0-.707-.293T16.001 10t.293-.707.707-.293h3.375l-2.719-2.656q-1.141-1.141-2.598-1.742T12 4q-1.578 0-3.008.586Q7.5 5.18 6.344 6.344q-.469.414-1.027 1.262t-.863 1.73q-.141.391-.516.566t-.758.043q-.391-.141-.566-.512t-.043-.754q.328-1 .953-1.984T4.93 4.929q1.437-1.437 3.305-2.195Q10.055 2 12.001 2z"/></svg>