<svg xmlns="http://www.w3.org/2000/svg" width="24" height="24"><path d="M12 1q2.047 0 3.961.246t3.512.719 2.562 1.258T23 5v14q0 .992-.965 1.777t-2.562 1.258-3.512.719T12 23t-3.961-.246-3.512-.719-2.562-1.258T1 19V5q0-.992.965-1.777t2.562-1.258 3.512-.719T12 1zm9 17.984v-4.555q-1.531.773-3.945 1.172T12 15.999t-5.055-.398T3 14.429v4.57q.047.172.418.414t1.137.523 1.781.516 2.508.391 3.156.156 3.156-.156 2.508-.395 1.781-.52 1.137-.523.418-.422zm0-7V7.429q-1.531.773-3.945 1.172T12 8.999t-5.055-.398T3 7.429v4.57q.047.172.418.414t1.137.523 1.781.516 2.508.391 3.156.156 3.156-.156 2.504-.391 1.777-.516 1.141-.527.422-.426zM12 3q-1.648 0-3.133.156t-2.492.387-1.777.508-1.152.523T3.001 5q.063.18.445.426t1.152.523 1.777.508 2.492.387T12 7t3.133-.156 2.492-.387 1.777-.508 1.152-.523.445-.426q-.063-.18-.445-.426t-1.152-.523-1.777-.508-2.492-.387T12 3z"/></svg>