<svg xmlns="http://www.w3.org/2000/svg" width="24" height="24"><path d="M18 2q1.656 0 2.828 1.172T22 6t-1.172 2.828T18 10q-.883 0-1.668-.363t-1.348-1.012l-5.07 2.539Q10 11.578 10 12t-.086.836l5.07 2.539q.563-.648 1.348-1.012T18 14q1.656 0 2.828 1.172T22 18t-1.172 2.828T18 22t-2.828-1.172T14 18q0-.422.086-.836l-5.07-2.539q-.563.648-1.348 1.012T6 16q-1.656 0-2.828-1.172T2 12t1.172-2.828T6 8q.883 0 1.668.363t1.348 1.012l5.07-2.539Q14 6.422 14 6q0-1.656 1.172-2.828T18 2zM6 10q-.828 0-1.414.586T4 12t.586 1.414T6 14t1.414-.586T8 12t-.586-1.414T6 10zm12 6q-.828 0-1.414.586T16 18t.586 1.414T18 20t1.414-.586T20 18t-.586-1.414T18 16zm0-12q-.828 0-1.414.586T16 6t.586 1.414T18 8t1.414-.586T20 6t-.586-1.414T18 4z"/></svg>