<svg xmlns="http://www.w3.org/2000/svg" width="24" height="24"><path d="M18 0q.414 0 .711.297l4 4Q23 4.586 23 5q0 .422-.289.711l-4 4Q18.422 10 18 10q-.414 0-.707-.293T17 9q0-.398.289-.703L19.586 6H18q-1.406 0-2.641.613t-2.07 1.676Q12 9.93 12 12q0 2.086-1 3.875-.531.961-1.289 1.727-1.109 1.133-2.586 1.766T4 20.001H2q-.414 0-.707-.293T1 19.001t.293-.707.707-.293h2q1.414 0 2.645-.609t2.066-1.672Q10 14.079 10 12.001q0-2.086 1-3.875.539-.969 1.289-1.719 1.109-1.133 2.586-1.77T18 4h1.586l-2.297-2.289Q17 1.406 17 1q0-.414.293-.707T18 0zm0 14q.414 0 .711.297l4 4q.289.289.289.711 0 .414-.289.703l-4 4Q18.422 24 18 24q-.414 0-.707-.289T17 23.008q0-.406.289-.711L19.586 20H18q-1.648 0-3.125-.633t-2.586-1.766q.602-.883 1-1.883.836 1.062 2.066 1.672t2.645.609h1.586l-2.297-2.289Q17 15.405 17 14.999q0-.414.293-.707t.707-.293zM2 4h2q1.648 0 3.125.637t2.586 1.77q-.609.898-1 1.883-.836-1.062-2.07-1.676T4 6.001H2q-.414 0-.707-.293T1 5.001t.293-.707T2 4.001z"/></svg>