<svg xmlns="http://www.w3.org/2000/svg" width="24" height="24"><path d="M12 4q3.07 0 5.977 1.078T23.25 8.25q.336.289.336.75 0 .391-.25.664l-.047.047Q23 10 22.586 10q-.391 0-.664-.25-2.086-1.844-4.652-2.797T12 6t-5.27.953T2.078 9.75q-.273.25-.664.25-.461 0-.75-.336Q.414 9.391.414 9q0-.461.336-.75 2.375-2.094 5.277-3.172T12 4zm.008 12q1.359 0 2.523.687.234.141.367.371t.133.496-.141.5q-.07.117-.156.203-.289.289-.711.289-.281 0-.5-.133-.711-.414-1.516-.414-.813 0-1.523.414-.25.141-.508.141-.57 0-.867-.492-.141-.234-.141-.5 0-.57.492-.867Q10.64 16 12.007 16zM12 10.008q1.891 0 3.68.625t3.281 1.852q.367.297.367.773 0 .359-.227.633-.047.063-.063.078-.289.289-.703.289-.367 0-.641-.227-1.219-1-2.688-1.516t-3.008-.516-3.008.516-2.688 1.516q-.273.227-.633.227-.477 0-.773-.367-.227-.273-.227-.633 0-.477.367-.773 1.484-1.227 3.281-1.852t3.68-.625z"/></svg>