<svg xmlns="http://www.w3.org/2000/svg" width="24" height="24"><path d="M4 1h16q1.242 0 2.121.879T23 4v16q0 1.242-.879 2.121T20 23H4q-1.242 0-2.121-.879T1 20V4q0-1.242.879-2.121T4 1zm16 2H4q-.414 0-.707.293T3 4v16q0 .414.293.707T4 21h16q.414 0 .707-.293T21 20V4q0-.414-.293-.707T20 3zm-4 5.523q.406 0 .703.293t.297.707-.297.711l-4.945 4.945q-.289.289-.703.289-.422 0-.711-.289l-2.828-2.828q-.289-.289-.289-.711 0-.414.293-.707t.707-.293q.406 0 .703.297l2.117 2.125 4.242-4.242q.297-.297.711-.297z"/></svg>