<svg xmlns="http://www.w3.org/2000/svg" width="24" height="24"><path d="M4 1h16q1.242 0 2.121.879T23 4v16q0 1.242-.879 2.121T20 23H4q-1.242 0-2.121-.879T1 20V4q0-1.242.879-2.121T4 1zm16 2H4q-.414 0-.707.293T3 4v16q0 .414.293.707T4 21h16q.414 0 .707-.293T21 20V4q0-.414-.293-.707T20 3zm-5.172 5.164q.414 0 .711.297t.297.711-.297.711L13.414 12l2.125 2.117q.297.297.297.711t-.297.707-.711.293-.703-.289L12 13.414l-2.125 2.125q-.281.289-.703.289-.43 0-.715-.285t-.285-.715q0-.422.289-.711L10.586 12 8.461 9.883q-.289-.289-.289-.711 0-.414.293-.711t.707-.297q.422 0 .703.297L12 10.586l2.125-2.125q.297-.297.703-.297z"/></svg>