<svg xmlns="http://www.w3.org/2000/svg" width="24" height="24"><path d="M12 6q1.633 0 3.012.805t2.184 2.184.805 3.012-.805 3.012-2.184 2.184-3.012.805-3.012-.805-2.184-2.184-.805-3.012.805-3.012 2.184-2.184T12 6zM5.641 17.359q.414 0 .707.297t.293.711q0 .406-.297.703L4.93 20.484q-.297.297-.703.297-.414 0-.707-.293t-.293-.707q0-.422.289-.711l1.414-1.414q.297-.297.711-.297zM12 20q.414 0 .707.293T13 21v2q0 .414-.293.707T12 24t-.707-.293T11 23v-2q0-.414.293-.707T12 20zM1 11h2q.414 0 .707.293T4 12t-.293.707T3 13H1q-.414 0-.707-.293T0 12t.293-.707T1 11zm11-3q-1.656 0-2.828 1.172T8 12t1.172 2.828T12 16t2.828-1.172T16 12t-1.172-2.828T12 8zm6.367 9.359q.406 0 .703.297l1.414 1.414q.297.297.297.711 0 .406-.297.703t-.703.297q-.414 0-.711-.297l-1.414-1.414q-.289-.289-.289-.703t.293-.711.707-.297zM4.227 3.219q.406 0 .703.297L6.344 4.93q.297.297.297.703 0 .414-.293.707t-.707.293q-.422 0-.711-.289L3.516 4.93q-.289-.289-.289-.711 0-.414.293-.707t.707-.293zM12 0q.414 0 .707.293T13 1v2q0 .414-.293.707T12 4t-.707-.293T11 3V1q0-.414.293-.707T12 0zm9 11h2q.414 0 .707.293T24 12t-.293.707T23 13h-2q-.414 0-.707-.293T20 12t.293-.707T21 11zm-1.219-7.781q.406 0 .703.297t.297.703q0 .414-.297.711L19.07 6.344q-.289.289-.703.289-.43 0-.715-.285t-.285-.715q0-.414.289-.703l1.414-1.414q.297-.297.711-.297z"/></svg>