<svg xmlns="http://www.w3.org/2000/svg" width="24" height="24"><path d="M12 1q2.242 0 4.277.871t3.508 2.344 2.344 3.508T23 12t-.871 4.277-2.344 3.508-3.508 2.344T12 23t-4.277-.871-3.508-2.344-2.344-3.508T1 12t.871-4.277 2.344-3.508 3.508-2.344T12 1zm0 2q-1.828 0-3.496.715T5.633 5.633 3.715 8.504 3 12t.715 3.496 1.918 2.871 2.871 1.918T12 21t3.496-.715 2.871-1.918 1.918-2.871T21 12t-.715-3.496-1.918-2.871-2.871-1.918T12 3zm0 2q1.422 0 2.719.555t2.234 1.492 1.492 2.234T19 12t-.555 2.719-1.492 2.234-2.234 1.492T12 19t-2.719-.555-2.234-1.492-1.492-2.234T5 12t.555-2.719 1.492-2.234 2.234-1.492T12 5zm0 2q-1.016 0-1.941.398T8.465 8.464t-1.066 1.594-.398 1.941.398 1.941 1.066 1.594 1.594 1.066 1.941.398 1.941-.398 1.594-1.066 1.066-1.594.398-1.941-.398-1.941-1.066-1.594-1.594-1.066T12 7zm0 2q1.242 0 2.121.879T15 12t-.879 2.121T12 15t-2.121-.879T9 12t.879-2.121T12 9zm0 2q-.414 0-.707.293T11 12t.293.707T12 13t.707-.293T13 12t-.293-.707T12 11z"/></svg>