<svg xmlns="http://www.w3.org/2000/svg" width="24" height="24"><path d="M8 4h8q1.625 0 3.105.633T21.66 6.34t1.707 2.555T24 12t-.633 3.105-1.707 2.555-2.555 1.707T16 20H8q-1.625 0-3.105-.633T2.34 17.66.633 15.105 0 12t.633-3.105T2.34 6.34t2.555-1.707T8 4zm0 4q1.656 0 2.828 1.172T12 12t-1.172 2.828T8 16t-2.828-1.172T4 12t1.172-2.828T8 8zm0 2q-.828 0-1.414.586T6 12t.586 1.414T8 14t1.414-.586T10 12t-.586-1.414T8 10zm8-4H8q-1.633 0-3.012.805T2.804 8.989t-.805 3.012.805 3.012 2.184 2.184T8 18.002h8q1.633 0 3.012-.805t2.184-2.184.805-3.012-.805-3.012-2.184-2.184T16 6z"/></svg>