<svg xmlns="http://www.w3.org/2000/svg" width="24" height="24"><path d="M12 1q1.633 0 3.012.805t2.184 2.184.805 3.012v1q0 .414-.293.707t-.707.293-.707-.293-.293-.707v-1q0-1.656-1.172-2.828t-2.828-1.172-2.828 1.172-1.172 2.828v4h12q1.242 0 2.121.879t.879 2.121v6q0 1.242-.879 2.121t-2.121.879h-16q-1.242 0-2.121-.879t-.879-2.121v-6q0-1.242.879-2.121t2.121-.879h2v-4q0-1.633.805-3.012T8.99 1.805 12.002 1zm8 12H4q-.414 0-.707.293T3 14v6q0 .414.293.707T4 21h16q.414 0 .707-.293T21 20v-6q0-.414-.293-.707T20 13z"/></svg>