<svg xmlns="http://www.w3.org/2000/svg" width="24" height="24"><path d="M5 0h14q1.242 0 2.121.879T22 3v14q0 1.242-.879 2.121T19 20h-4v-2h4q.414 0 .707-.293T20 17V3q0-.414-.293-.707T19 2H5q-.414 0-.707.293T4 3v14q0 .414.293.707T5 18h4v2H5q-1.242 0-2.121-.879T2 17V3q0-1.242.879-2.121T5 0zm7 7q.422 0 .711.289l4 4Q17 11.578 17 12q0 .414-.293.707T16 13q-.406 0-.711-.289L13 10.414V23q0 .414-.293.707T12 24t-.707-.293T11 23V10.414l-2.289 2.297Q8.406 13 8 13q-.414 0-.707-.293T7 12q0-.406.289-.711l4-4Q11.578 7 12 7z"/></svg>