<svg xmlns="http://www.w3.org/2000/svg" width="24" height="24"><path d="M5 8l5-5v18l-5-5H3q-1.242 0-2.121-.879T0 13v-1.961q0-1.242.879-2.141T3 8h2zm3 8.172V7.789L5.828 10H3q-.406 0-.703.309t-.297.73V13q0 .414.293.707T3 14h2.828zm6.531-7.508q.289 0 .543.164t.379.445Q16 10.593 16 12q0 1.43-.547 2.711-.117.281-.371.449t-.551.168q-.367 0-.684-.277t-.316-.723q0-.18.078-.391.391-.922.391-1.938 0-1.008-.391-1.945-.078-.18-.078-.391 0-.445.301-.723t.699-.277zm3.055-2.789q.563 0 .859.492.773 1.289 1.148 2.664.406 1.469.406 2.969 0 1.492-.406 2.977-.383 1.391-1.148 2.664-.289.484-.859.484-.391 0-.695-.281t-.305-.719q0-.273.148-.516.609-1.016.93-2.172.336-1.172.336-2.438 0-1.258-.336-2.43-.32-1.156-.93-2.18-.148-.227-.148-.508 0-.422.309-.715t.691-.293zm2.992-2.742q.539 0 .828.438 1.273 1.867 1.934 4.016t.66 4.414-.66 4.414-1.934 4.016q-.281.438-.828.438-.406 0-.699-.281t-.293-.719q0-.312.172-.563Q22 16.017 22 12.001q0-1.969-.57-3.828t-1.672-3.477q-.172-.25-.172-.563 0-.438.293-.719t.699-.281z"/></svg>