<svg xmlns="http://www.w3.org/2000/svg" width="24" height="24"><path d="M9 0h6q1.242 0 2.121.879T18 3v2.297q1.406 1.25 2.203 2.996T21 12t-.797 3.703-2.203 3V21q0 1.242-.879 2.121T15 24H9q-1.242 0-2.121-.879T6 21v-2.297q-1.406-1.258-2.203-3T3 12t.797-3.707T6 5.297V3q0-1.242.879-2.121T9 0zm7 21v-.938Q14.125 21 12 21t-4-.938V21q0 .414.293.707T9 22h6q.414 0 .707-.293T16 21zM12 5q-1.422 0-2.719.555T7.047 7.047 5.555 9.281 5 12t.555 2.719 1.492 2.234 2.234 1.492T12 19t2.719-.555 2.234-1.492 1.492-2.234T19 12t-.555-2.719-1.492-2.234-2.234-1.492T12 5zm0 2q.414 0 .707.293T13 8v3.586l1.711 1.703Q15 13.578 15 14t-.289.711T14 15t-.711-.289l-2-2Q11 12.422 11 12V8q0-.414.293-.707T12 7zm3-5H9q-.414 0-.707.293T8 3v.938Q9.875 3 12 3t4 .938V3q0-.414-.293-.707T15 2z"/></svg>